<?xml version="1.0" encoding="utf-8"?>
<!-- Generator: Adobe Illustrator 24.3.0, SVG Export Plug-In . SVG Version: 6.00 Build 0)  -->
<svg version="1.1" id="Calque_1" xmlns="http://www.w3.org/2000/svg" xmlns:xlink="http://www.w3.org/1999/xlink" x="0px" y="0px"
	 viewBox="0 0 231.14 223.71" style="enable-background:new 0 0 231.14 223.71;" xml:space="preserve">
<style type="text/css">
	.st0{fill:#8DA6D8;}
	.st1{fill:none;stroke:#000000;stroke-width:4;stroke-miterlimit:10;}
	.st2{clip-path:url(#SVGID_2_);fill:#E1AE44;}
	.st3{clip-path:url(#SVGID_2_);fill:none;stroke:#000000;stroke-width:4;stroke-miterlimit:10;}
	.st4{clip-path:url(#SVGID_2_);fill:#A87EB0;}
	.st5{clip-path:url(#SVGID_2_);fill:#7DA08D;}
	.st6{clip-path:url(#SVGID_2_);fill:#CA4B40;}
</style>
<rect x="57.17" y="55.43" class="st0" width="116.76" height="112.85"/>
<rect x="57.17" y="55.43" class="st1" width="116.76" height="112.85"/>
<g>
	<defs>
		<rect id="SVGID_1_" width="231.14" height="223.71"/>
	</defs>
	<clipPath id="SVGID_2_">
		<use xlink:href="#SVGID_1_"  style="overflow:visible;"/>
	</clipPath>
	<path class="st2" d="M153.9,98.05v80.14c0,30.03-14.6,41.55-38.03,41.55c-10.05,0-19.16-3.12-26.63-9.66
		c-7.47-6.25-12.03-16.88-12.03-31.9l0.34-21.55v-8.28c7.34,0,15.58-0.04,24.06-0.12v29.95c0,14.69,5.19,20.33,14.27,20.33
		c9.12,0,13.68-4.71,13.68-19.36V98.05H153.9z"/>
	<path class="st3" d="M153.9,98.05v80.14c0,30.03-14.6,41.55-38.03,41.55c-10.05,0-19.16-3.12-26.63-9.66
		c-7.47-6.25-12.03-16.88-12.03-31.9l0.34-21.55v-8.28c7.34,0,15.58-0.04,24.06-0.12v29.95c0,14.69,5.19,20.33,14.27,20.33
		c9.12,0,13.68-4.71,13.68-19.36V98.05H153.9z"/>
	<path class="st4" d="M153.9,45.52v29.83h-24.35V44.59c0-14.69-4.56-19.4-13.68-19.4c-9.08,0-14.27,5.64-14.27,20.33v80.14H77.54
		v-13.92c-0.09-4.34-0.17-8.68-0.21-12.98c-0.09-8.28-0.13-16.27-0.13-23.41V45.52c0-15.01,4.56-25.65,12.03-32.18
		c7.47-6.25,16.59-9.37,26.63-9.37C139.29,3.97,153.9,15.53,153.9,45.52"/>
	<path class="st3" d="M153.9,45.52v29.83h-24.35V44.59c0-14.69-4.56-19.4-13.68-19.4c-9.08,0-14.27,5.64-14.27,20.33v80.14H77.54
		v-13.92c-0.09-4.34-0.17-8.68-0.21-12.98c-0.09-8.28-0.13-16.27-0.13-23.41V45.52c0-15.01,4.56-25.65,12.03-32.18
		c7.47-6.25,16.59-9.37,26.63-9.37C139.29,3.97,153.9,15.53,153.9,45.52z"/>
	<path class="st5" d="M184.84,148.91l-30.89-0.35v-23.2l30.24,0.01c15.2,0,20.99-5.06,20.99-13.82c0-8.81-4.83-13.21-20.03-13.21
		l-83.59,0.01l0.11-23.58l82.51,0.03c31.02,0,42.99,14.11,42.99,36.74c0,9.75-3.23,18.51-10.03,25.73
		c-6.47,7.22-17.47,11.62-32.96,11.62"/>
	<path class="st3" d="M184.84,148.91l-30.89-0.35v-23.2l30.24,0.01c15.2,0,20.99-5.06,20.99-13.82c0-8.81-4.83-13.21-20.03-13.21
		l-83.59,0.01l0.11-23.58l82.51,0.03c31.02,0,42.99,14.11,42.99,36.74c0,9.75-3.23,18.51-10.03,25.73
		c-6.47,7.22-17.47,11.62-32.96,11.62"/>
	<path class="st6" d="M129.19,125.36v23.2l-13.71,0.01c-4.49,0.08-8.99,0.16-13.39,0.2c-8.44,0.08-16.63,0.12-23.93,0.12H46.96
		c-15.53,0-26.49-4.4-33.29-11.62c-6.46-7.22-9.7-15.98-9.7-25.73c0-22.63,11.96-36.74,42.99-36.74l30.22,0.07
		c0,7.18,0.04,15.21,0.13,23.53l-31.32-0.07c-15.2,0-20.07,4.4-20.07,13.21c0,8.77,5.84,13.82,21.03,13.82L129.19,125.36z"/>
	<path class="st3" d="M129.19,125.36v23.2l-13.71,0.01c-4.49,0.08-8.99,0.16-13.39,0.2c-8.44,0.08-16.63,0.12-23.93,0.12H46.96
		c-15.53,0-26.49-4.4-33.29-11.62c-6.46-7.22-9.7-15.98-9.7-25.73c0-22.63,11.96-36.74,42.99-36.74l30.22,0.07
		c0,7.18,0.04,15.21,0.13,23.53l-31.32-0.07c-15.2,0-20.07,4.4-20.07,13.21c0,8.77,5.84,13.82,21.03,13.82L129.19,125.36z"/>
</g>
</svg>
