<?xml version="1.0" encoding="utf-8"?>
<!-- Generator: Adobe Illustrator 24.3.0, SVG Export Plug-In . SVG Version: 6.00 Build 0)  -->
<svg version="1.1" id="Calque_1" xmlns="http://www.w3.org/2000/svg" xmlns:xlink="http://www.w3.org/1999/xlink" x="0px" y="0px"
	 viewBox="0 0 841.89 595.28" style="enable-background:new 0 0 841.89 595.28;" xml:space="preserve">
<style type="text/css">
	.st0{fill:#8DA6D8;}
	.st1{fill:none;stroke:#FFFFFF;stroke-width:4;stroke-miterlimit:10;}
	.st2{clip-path:url(#SVGID_2_);fill:#E1AE44;}
	.st3{clip-path:url(#SVGID_2_);fill:none;stroke:#FFFFFF;stroke-width:4;stroke-miterlimit:10;}
	.st4{clip-path:url(#SVGID_2_);fill:#A87EB0;}
	.st5{clip-path:url(#SVGID_2_);fill:#7DA08D;}
	.st6{clip-path:url(#SVGID_2_);fill:#CA4B40;}
	.st7{clip-path:url(#SVGID_2_);fill:#FFFFFF;}
</style>
<rect x="387.34" y="267.98" class="st0" width="58.82" height="56.85"/>
<rect x="387.34" y="267.98" class="st1" width="58.82" height="56.85"/>
<g>
	<defs>
		<rect id="SVGID_1_" x="234.59" y="240.05" width="364.34" height="182.21"/>
	</defs>
	<clipPath id="SVGID_2_">
		<use xlink:href="#SVGID_1_"  style="overflow:visible;"/>
	</clipPath>
	<path class="st2" d="M436.07,289.44v40.38c0,15.13-7.36,20.93-19.16,20.93c-5.06,0-9.65-1.57-13.42-4.86
		c-3.76-3.15-6.06-8.51-6.06-16.07l0.17-10.85v-4.17c3.7,0,7.85-0.02,12.12-0.06v15.09c0,7.4,2.62,10.24,7.19,10.24
		c4.59,0,6.89-2.37,6.89-9.75v-40.87H436.07z"/>
	<path class="st3" d="M436.07,289.44v40.38c0,15.13-7.36,20.93-19.16,20.93c-5.06,0-9.65-1.57-13.42-4.86
		c-3.76-3.15-6.06-8.51-6.06-16.07l0.17-10.85v-4.17c3.7,0,7.85-0.02,12.12-0.06v15.09c0,7.4,2.62,10.24,7.19,10.24
		c4.59,0,6.89-2.37,6.89-9.75v-40.87H436.07z"/>
	<path class="st4" d="M436.07,262.98v15.03H423.8v-15.5c0-7.4-2.3-9.77-6.89-9.77c-4.57,0-7.19,2.84-7.19,10.24v40.38H397.6v-7.01
		c-0.04-2.19-0.08-4.37-0.11-6.54c-0.04-4.17-0.06-8.2-0.06-11.8v-15.03c0-7.56,2.3-12.92,6.06-16.21
		c3.76-3.15,8.36-4.72,13.42-4.72C428.71,242.05,436.07,247.87,436.07,262.98"/>
	<path class="st3" d="M436.07,262.98v15.03H423.8v-15.5c0-7.4-2.3-9.77-6.89-9.77c-4.57,0-7.19,2.84-7.19,10.24v40.38H397.6v-7.01
		c-0.04-2.19-0.08-4.37-0.11-6.54c-0.04-4.17-0.06-8.2-0.06-11.8v-15.03c0-7.56,2.3-12.92,6.06-16.21
		c3.76-3.15,8.36-4.72,13.42-4.72C428.71,242.05,436.07,247.87,436.07,262.98z"/>
	<path class="st5" d="M451.66,315.07l-15.56-0.17V303.2l15.24,0.01c7.66,0,10.57-2.55,10.57-6.96c0-4.44-2.43-6.66-10.09-6.66
		l-42.11,0.01l0.06-11.88l41.57,0.02c15.63,0,21.66,7.11,21.66,18.51c0,4.91-1.63,9.33-5.05,12.96c-3.26,3.64-8.8,5.86-16.6,5.86"/>
	<path class="st3" d="M451.66,315.07l-15.56-0.17V303.2l15.24,0.01c7.66,0,10.57-2.55,10.57-6.96c0-4.44-2.43-6.66-10.09-6.66
		l-42.11,0.01l0.06-11.88l41.57,0.02c15.63,0,21.66,7.11,21.66,18.51c0,4.91-1.63,9.33-5.05,12.96c-3.26,3.64-8.8,5.86-16.6,5.86"/>
	<path class="st6" d="M423.62,303.2v11.69l-6.91,0.01c-2.26,0.04-4.53,0.08-6.75,0.1c-4.25,0.04-8.38,0.06-12.06,0.06H382.2
		c-7.83,0-13.35-2.22-16.77-5.86c-3.26-3.64-4.89-8.05-4.89-12.96c0-11.4,6.03-18.51,21.66-18.51l15.23,0.04
		c0,3.62,0.02,7.66,0.06,11.85l-15.78-0.04c-7.66,0-10.11,2.22-10.11,6.66c0,4.42,2.94,6.96,10.6,6.96L423.62,303.2z"/>
	<path class="st3" d="M423.62,303.2v11.69l-6.91,0.01c-2.26,0.04-4.53,0.08-6.75,0.1c-4.25,0.04-8.38,0.06-12.06,0.06H382.2
		c-7.83,0-13.35-2.22-16.77-5.86c-3.26-3.64-4.89-8.05-4.89-12.96c0-11.4,6.03-18.51,21.66-18.51l15.23,0.04
		c0,3.62,0.02,7.66,0.06,11.85l-15.78-0.04c-7.66,0-10.11,2.22-10.11,6.66c0,4.42,2.94,6.96,10.6,6.96L423.62,303.2z"/>
	<path class="st7" d="M598.93,396.02c0-15.65-6.42-23.51-18.54-23.51c-12.12,0-19.1,7.86-19.1,20.06c0,14.29,6.58,21.51,19.74,21.51
		c8.43,0,14.93-4.57,17.33-12.68h-10.75c-0.72,2.73-3.69,4.41-7.06,4.41c-5.14,0-8.51-3.85-8.83-9.79H598.93z M572.05,389.44
		c0.4-5.46,3.85-8.67,8.03-8.67c4.09,0,7.95,2.81,8.1,8.67H572.05z M530.88,422.25V407.9c2.97,4.17,6.82,6.18,11.72,6.18
		c10.19,0,16.21-8.43,16.21-20.38c0-13.32-7.14-21.19-17.09-21.19c-4.82,0-8.51,1.85-10.99,5.86l-0.08-4.81h-10.03v48.7H530.88z
		 M539.23,405.17c-5.78,0-8.75-4.25-8.75-12.84c0-6.66,3.85-11.32,8.83-11.32c5.22,0,8.91,4.9,8.91,11.96
		C548.21,401.08,545.32,405.17,539.23,405.17 M497.17,414.08c12.28,0,20.06-8.27,20.06-20.79c0-12.6-7.7-20.79-20.06-20.79
		c-12.52,0-20.3,8.27-20.3,20.79C476.87,405.57,484.41,414.08,497.17,414.08 M497.17,405.33c-6.34,0-9.55-4.01-9.55-12.04
		c0-8.02,3.21-11.96,9.55-11.96s9.55,3.93,9.55,11.96C506.72,401.32,503.51,405.33,497.17,405.33 M464.59,398.75
		c-0.4,4.25-3.61,6.58-7.7,6.58c-4.09,0-7.71-4.17-7.71-12.76s3.61-11.39,8.03-11.39c3.93,0,6.9,2.41,7.46,6.5h10.51
		c-0.64-9.31-7.62-15.17-17.9-15.17c-11.08,0-18.46,6.18-18.46,20.3c0,14.12,7.38,21.27,18.14,21.27c9.55,0,17.01-6.18,18.14-15.33
		H464.59z M435.86,385.51c-0.48-8.1-5.46-13-16.77-13c-12.36,0-16.93,5.22-16.93,11.15c0,6.66,2.81,10.59,18.14,13.96
		c4.25,0.96,6.34,1.93,6.34,4.82c0,2.57-3.29,3.77-7.22,3.77c-4.65,0-7.95-2.17-7.95-5.86h-10.75c0.16,8.35,7.46,13.72,18.78,13.72
		c11.48,0,17.49-5.22,17.49-12.28c0-9.23-4.49-9.95-18.3-13.72c-4.17-1.12-6.42-2.25-6.42-4.41c0-2.49,2.25-3.37,6.5-3.37
		c4.49,0,6.58,1.6,7.06,5.22H435.86z M378.64,414.08c12.28,0,20.06-8.27,20.06-20.79c0-12.6-7.7-20.79-20.06-20.79
		c-12.52,0-20.3,8.27-20.3,20.79C358.34,405.57,365.88,414.08,378.64,414.08 M378.64,405.33c-6.34,0-9.55-4.01-9.55-12.04
		c0-8.02,3.21-11.96,9.55-11.96s9.55,3.93,9.55,11.96C388.19,401.32,384.98,405.33,378.64,405.33 M355.05,413.03V359.1h-10.27v19.58
		c-2.97-4.17-6.82-6.18-11.72-6.18c-10.19,0-16.21,8.43-16.21,20.38c0,13.32,7.14,21.19,17.09,21.19c4.82,0,8.51-1.85,10.99-5.86
		l0.08,4.82H355.05z M336.35,405.57c-5.22,0-8.91-4.9-8.91-11.96c0-8.11,2.89-12.2,8.99-12.2c5.78,0,8.75,4.25,8.75,12.84
		C345.18,400.92,341.33,405.57,336.35,405.57 M313.48,413.03v-24.96c0-9.95-4.33-15.57-16.85-15.57c-12.68,0-17.17,5.7-17.33,13.88
		H289c0.48-3.53,2.41-5.86,7.14-5.86c4.09,0,6.66,1.52,6.66,4.09c0,2.73-1.45,3.77-6.66,4.49c-10.51,1.44-18.14,2.73-18.14,14.12
		c0,6.42,4.17,10.83,13.16,10.83c5.3,0,9.47-1.85,11.96-4.57c0.08,1.2,0.32,2.57,0.64,3.53H313.48z M302.97,398.03
		c-0.08,4.65-4.09,8.59-9.47,8.59c-3.29,0-5.06-1.45-5.06-4.41c0-3.37,1.93-5.06,7.86-6.18c3.85-0.72,5.7-1.28,6.74-2.33
		L302.97,398.03z M274.64,359.1H264.2v9.71h10.43V359.1z M274.64,373.55H264.2v39.48h10.43V373.55z M259.87,359.1h-10.43v53.93
		h10.43V359.1z M245.03,359.1h-10.43v9.71h10.43V359.1z M245.03,373.55h-10.43v39.48h10.43V373.55z"/>
</g>
</svg>
