<?xml version="1.0" encoding="utf-8"?>
<!-- Generator: Adobe Illustrator 24.3.0, SVG Export Plug-In . SVG Version: 6.00 Build 0)  -->
<svg version="1.1" id="Calque_1" xmlns="http://www.w3.org/2000/svg" xmlns:xlink="http://www.w3.org/1999/xlink" x="0px" y="0px"
	 viewBox="0 0 841.89 595.28" style="enable-background:new 0 0 841.89 595.28;" xml:space="preserve">
<style type="text/css">
	.st0{fill:#8DA6D8;}
	.st1{fill:none;stroke:#FFFFFF;stroke-width:4;stroke-miterlimit:10;}
	.st2{clip-path:url(#SVGID_2_);fill:#E1AE44;}
	.st3{clip-path:url(#SVGID_2_);fill:none;stroke:#FFFFFF;stroke-width:4;stroke-miterlimit:10;}
	.st4{clip-path:url(#SVGID_2_);fill:#A87EB0;}
	.st5{clip-path:url(#SVGID_2_);fill:#7DA08D;}
	.st6{clip-path:url(#SVGID_2_);fill:#CA4B40;}
	.st7{clip-path:url(#SVGID_2_);fill:#FFFFFF;}
</style>
<rect x="179.38" y="259.16" class="st0" width="58.82" height="56.85"/>
<rect x="179.38" y="259.16" class="st1" width="58.82" height="56.85"/>
<g>
	<defs>
		<rect id="SVGID_1_" x="150.57" y="231.23" width="540.74" height="112.71"/>
	</defs>
	<clipPath id="SVGID_2_">
		<use xlink:href="#SVGID_1_"  style="overflow:visible;"/>
	</clipPath>
	<path class="st2" d="M228.11,280.63V321c0,15.13-7.36,20.93-19.16,20.93c-5.06,0-9.65-1.57-13.42-4.86
		c-3.76-3.15-6.06-8.51-6.06-16.07l0.17-10.86v-4.17c3.7,0,7.85-0.02,12.12-0.06V321c0,7.4,2.62,10.24,7.19,10.24
		c4.59,0,6.89-2.37,6.89-9.75v-40.87H228.11z"/>
	<path class="st3" d="M228.11,280.63V321c0,15.13-7.36,20.93-19.16,20.93c-5.06,0-9.65-1.57-13.42-4.86
		c-3.76-3.15-6.06-8.51-6.06-16.07l0.17-10.86v-4.17c3.7,0,7.85-0.02,12.12-0.06V321c0,7.4,2.62,10.24,7.19,10.24
		c4.59,0,6.89-2.37,6.89-9.75v-40.87H228.11z"/>
	<path class="st4" d="M228.11,254.17v15.03h-12.27v-15.5c0-7.4-2.3-9.77-6.89-9.77c-4.57,0-7.19,2.84-7.19,10.24v40.38h-12.12v-7.01
		c-0.04-2.19-0.08-4.37-0.11-6.54c-0.04-4.17-0.06-8.2-0.06-11.8v-15.03c0-7.56,2.3-12.92,6.06-16.21
		c3.76-3.15,8.36-4.72,13.42-4.72C220.75,233.23,228.11,239.06,228.11,254.17"/>
	<path class="st3" d="M228.11,254.17v15.03h-12.27v-15.5c0-7.4-2.3-9.77-6.89-9.77c-4.57,0-7.19,2.84-7.19,10.24v40.38h-12.12v-7.01
		c-0.04-2.19-0.08-4.37-0.11-6.54c-0.04-4.17-0.06-8.2-0.06-11.8v-15.03c0-7.56,2.3-12.92,6.06-16.21
		c3.76-3.15,8.36-4.72,13.42-4.72C220.75,233.23,228.11,239.06,228.11,254.17z"/>
	<path class="st5" d="M243.69,306.25l-15.56-0.18v-11.69l15.24,0.01c7.66,0,10.57-2.55,10.57-6.96c0-4.44-2.43-6.66-10.09-6.66
		l-42.11,0.01l0.06-11.88l41.57,0.02c15.63,0,21.66,7.11,21.66,18.51c0,4.91-1.63,9.33-5.05,12.96c-3.26,3.64-8.8,5.86-16.6,5.86"/>
	<path class="st3" d="M243.69,306.25l-15.56-0.18v-11.69l15.24,0.01c7.66,0,10.57-2.55,10.57-6.96c0-4.44-2.43-6.66-10.09-6.66
		l-42.11,0.01l0.06-11.88l41.57,0.02c15.63,0,21.66,7.11,21.66,18.51c0,4.91-1.63,9.33-5.05,12.96c-3.26,3.64-8.8,5.86-16.6,5.86"/>
	<path class="st6" d="M215.66,294.39v11.69l-6.91,0.01c-2.26,0.04-4.53,0.08-6.75,0.1c-4.25,0.04-8.38,0.06-12.06,0.06h-15.71
		c-7.83,0-13.35-2.22-16.77-5.86c-3.26-3.64-4.88-8.05-4.88-12.96c0-11.4,6.03-18.51,21.66-18.51l15.23,0.04
		c0,3.62,0.02,7.66,0.06,11.85l-15.78-0.04c-7.66,0-10.11,2.22-10.11,6.66c0,4.42,2.94,6.96,10.6,6.96L215.66,294.39z"/>
	<path class="st3" d="M215.66,294.39v11.69l-6.91,0.01c-2.26,0.04-4.53,0.08-6.75,0.1c-4.25,0.04-8.38,0.06-12.06,0.06h-15.71
		c-7.83,0-13.35-2.22-16.77-5.86c-3.26-3.64-4.88-8.05-4.88-12.96c0-11.4,6.03-18.51,21.66-18.51l15.23,0.04
		c0,3.62,0.02,7.66,0.06,11.85l-15.78-0.04c-7.66,0-10.11,2.22-10.11,6.66c0,4.42,2.94,6.96,10.6,6.96L215.66,294.39z"/>
	<path class="st7" d="M691.32,298.92c0-17.78-7.3-26.72-21.07-26.72c-13.77,0-21.71,8.94-21.71,22.8c0,16.23,7.48,24.44,22.43,24.44
		c9.58,0,16.96-5.2,19.7-14.41h-12.22c-0.82,3.1-4.19,5.02-8.03,5.02c-5.84,0-9.67-4.38-10.03-11.13H691.32z M660.76,291.44
		c0.46-6.2,4.38-9.85,9.12-9.85c4.65,0,9.03,3.19,9.21,9.85H660.76z M613.98,328.73v-16.32c3.37,4.74,7.75,7.02,13.31,7.02
		c11.58,0,18.42-9.58,18.42-23.16c0-15.14-8.12-24.08-19.43-24.08c-5.47,0-9.67,2.1-12.49,6.66l-0.09-5.47h-11.4v55.35H613.98z
		 M623.47,309.32c-6.57,0-9.94-4.83-9.94-14.59c0-7.57,4.38-12.86,10.03-12.86c5.93,0,10.12,5.56,10.12,13.59
		C633.68,304.67,630.4,309.32,623.47,309.32 M575.68,319.44c13.95,0,22.8-9.39,22.8-23.62c0-14.32-8.76-23.62-22.8-23.62
		c-14.23,0-23.07,9.39-23.07,23.62C552.6,309.77,561.18,319.44,575.68,319.44 M575.68,309.5c-7.2,0-10.85-4.56-10.85-13.68
		c0-9.12,3.65-13.59,10.85-13.59c7.21,0,10.85,4.47,10.85,13.59C586.53,304.94,582.88,309.5,575.68,309.5 M538.65,302.02
		c-0.46,4.83-4.1,7.48-8.76,7.48s-8.76-4.74-8.76-14.5s4.1-12.95,9.12-12.95c4.47,0,7.84,2.74,8.48,7.39h11.95
		c-0.73-10.58-8.66-17.24-20.34-17.24c-12.58,0-20.98,7.02-20.98,23.07c0,16.05,8.39,24.17,20.61,24.17
		c10.85,0,19.33-7.02,20.61-17.42H538.65z M506,286.97c-0.55-9.21-6.2-14.77-19.06-14.77c-14.04,0-19.24,5.93-19.24,12.68
		c0,7.57,3.19,12.04,20.61,15.87c4.83,1.09,7.2,2.19,7.2,5.47c0,2.92-3.74,4.29-8.21,4.29c-5.29,0-9.03-2.46-9.03-6.66h-12.22
		c0.18,9.48,8.48,15.6,21.34,15.6c13.04,0,19.88-5.93,19.88-13.95c0-10.49-5.11-11.31-20.79-15.6c-4.74-1.28-7.3-2.55-7.3-5.02
		c0-2.83,2.55-3.83,7.39-3.83c5.11,0,7.48,1.82,8.03,5.93H506z M440.98,319.44c13.95,0,22.8-9.39,22.8-23.62
		c0-14.32-8.75-23.62-22.8-23.62c-14.23,0-23.07,9.39-23.07,23.62C417.91,309.77,426.48,319.44,440.98,319.44 M440.98,309.5
		c-7.2,0-10.85-4.56-10.85-13.68c0-9.12,3.65-13.59,10.85-13.59c7.2,0,10.85,4.47,10.85,13.59
		C451.83,304.94,448.18,309.5,440.98,309.5 M414.17,318.26v-61.29h-11.67v22.25c-3.38-4.74-7.75-7.02-13.32-7.02
		c-11.58,0-18.42,9.58-18.42,23.16c0,15.14,8.12,24.08,19.42,24.08c5.47,0,9.67-2.1,12.49-6.66l0.09,5.47H414.17z M392.92,309.77
		c-5.93,0-10.12-5.56-10.12-13.59c0-9.21,3.28-13.86,10.21-13.86c6.57,0,9.94,4.83,9.94,14.59
		C402.95,304.48,398.57,309.77,392.92,309.77 M366.93,318.26v-28.36c0-11.31-4.92-17.69-19.15-17.69c-14.41,0-19.52,6.48-19.7,15.78
		h11.04c0.55-4.01,2.74-6.66,8.12-6.66c4.65,0,7.57,1.73,7.57,4.65c0,3.1-1.64,4.29-7.57,5.11c-11.95,1.64-20.61,3.1-20.61,16.05
		c0,7.29,4.74,12.31,14.96,12.31c6.02,0,10.76-2.1,13.59-5.2c0.09,1.37,0.37,2.92,0.73,4.01H366.93z M354.98,301.2
		c-0.09,5.29-4.65,9.76-10.76,9.76c-3.74,0-5.74-1.64-5.74-5.02c0-3.83,2.19-5.74,8.94-7.02c4.38-0.82,6.47-1.46,7.66-2.64
		L354.98,301.2z M322.79,256.97h-11.86V268h11.86V256.97z M322.79,273.39h-11.86v44.87h11.86V273.39z M306.01,256.97h-11.86v61.29
		h11.86V256.97z M289.14,256.97h-11.86V268h11.86V256.97z M289.14,273.39h-11.86v44.87h11.86V273.39z"/>
</g>
</svg>
