<?xml version="1.0" encoding="UTF-8" standalone="no"?>
<svg
   xmlns:dc="http://purl.org/dc/elements/1.1/"
   xmlns:cc="http://creativecommons.org/ns#"
   xmlns:rdf="http://www.w3.org/1999/02/22-rdf-syntax-ns#"
   xmlns:svg="http://www.w3.org/2000/svg"
   xmlns="http://www.w3.org/2000/svg"
   xmlns:xlink="http://www.w3.org/1999/xlink"
   xmlns:sodipodi="http://sodipodi.sourceforge.net/DTD/sodipodi-0.dtd"
   xmlns:inkscape="http://www.inkscape.org/namespaces/inkscape"
   version="1.1"
   id="Calque_1"
   x="0px"
   y="0px"
   viewBox="0 0 540.73998 112.70001"
   xml:space="preserve"
   sodipodi:docname="logo_picto_gauche_noir_white_text.svg"
   width="540.73999"
   height="112.70001"
   inkscape:version="1.0 (4035a4f, 2020-05-01)"><metadata
   id="metadata47"><rdf:RDF><cc:Work
       rdf:about=""><dc:format>image/svg+xml</dc:format><dc:type
         rdf:resource="http://purl.org/dc/dcmitype/StillImage" /></cc:Work></rdf:RDF></metadata><defs
   id="defs45" /><sodipodi:namedview
   inkscape:document-rotation="0"
   pagecolor="#ffffff"
   bordercolor="#666666"
   borderopacity="1"
   objecttolerance="10"
   gridtolerance="10"
   guidetolerance="10"
   inkscape:pageopacity="0"
   inkscape:pageshadow="2"
   inkscape:window-width="1440"
   inkscape:window-height="782"
   id="namedview43"
   showgrid="false"
   inkscape:zoom="0.95974533"
   inkscape:cx="275.555"
   inkscape:cy="57.020013"
   inkscape:window-x="0"
   inkscape:window-y="23"
   inkscape:window-maximized="1"
   inkscape:current-layer="g40" />
<style
   type="text/css"
   id="style10">
	.st0{fill:#8DA6D8;}
	.st1{fill:none;stroke:#000000;stroke-width:4;stroke-miterlimit:10;}
	.st2{clip-path:url(#SVGID_2_);fill:#E1AE44;}
	.st3{clip-path:url(#SVGID_2_);fill:none;stroke:#000000;stroke-width:4;stroke-miterlimit:10;}
	.st4{clip-path:url(#SVGID_2_);fill:#A87EB0;}
	.st5{clip-path:url(#SVGID_2_);fill:#7DA08D;}
	.st6{clip-path:url(#SVGID_2_);fill:#CA4B40;}
	.st7{clip-path:url(#SVGID_2_);}
</style>
<rect
   x="28.809998"
   y="27.920021"
   class="st0"
   width="58.82"
   height="56.849998"
   id="rect12" />
<rect
   x="28.809998"
   y="27.920021"
   class="st1"
   width="58.82"
   height="56.849998"
   id="rect14" />
<g
   id="g40"
   transform="translate(-145.39,-240.61999)">
	<defs
   id="defs17">
		<rect
   id="SVGID_1_"
   x="145.39"
   y="240.61"
   width="540.73999"
   height="112.71" />
	</defs>
	<clipPath
   id="SVGID_2_">
		<use
   xlink:href="#SVGID_1_"
   style="overflow:visible"
   id="use19"
   x="0"
   y="0"
   width="100%"
   height="100%" />
	</clipPath>
	<path
   class="st2"
   d="m 222.93,290.01 v 40.38 c 0,15.13 -7.36,20.93 -19.16,20.93 -5.06,0 -9.65,-1.57 -13.42,-4.86 -3.76,-3.15 -6.06,-8.51 -6.06,-16.07 l 0.17,-10.86 v -4.17 c 3.7,0 7.85,-0.02 12.12,-0.06 v 15.09 c 0,7.4 2.62,10.24 7.19,10.24 4.59,0 6.89,-2.37 6.89,-9.75 v -40.87 z"
   clip-path="url(#SVGID_2_)"
   id="path22" />
	<path
   class="st3"
   d="m 222.93,290.01 v 40.38 c 0,15.13 -7.36,20.93 -19.16,20.93 -5.06,0 -9.65,-1.57 -13.42,-4.86 -3.76,-3.15 -6.06,-8.51 -6.06,-16.07 l 0.17,-10.86 v -4.17 c 3.7,0 7.85,-0.02 12.12,-0.06 v 15.09 c 0,7.4 2.62,10.24 7.19,10.24 4.59,0 6.89,-2.37 6.89,-9.75 v -40.87 z"
   clip-path="url(#SVGID_2_)"
   id="path24" />
	<path
   class="st4"
   d="m 222.93,263.55 v 15.03 h -12.27 v -15.5 c 0,-7.4 -2.3,-9.77 -6.89,-9.77 -4.57,0 -7.19,2.84 -7.19,10.24 v 40.38 h -12.12 v -7.01 c -0.04,-2.19 -0.09,-4.37 -0.11,-6.54 -0.04,-4.17 -0.06,-8.2 -0.06,-11.8 v -15.03 c 0,-7.56 2.3,-12.92 6.06,-16.21 3.76,-3.15 8.36,-4.72 13.42,-4.72 11.8,-0.01 19.16,5.82 19.16,20.93"
   clip-path="url(#SVGID_2_)"
   id="path26" />
	<path
   class="st3"
   d="m 222.93,263.55 v 15.03 h -12.27 v -15.5 c 0,-7.4 -2.3,-9.77 -6.89,-9.77 -4.57,0 -7.19,2.84 -7.19,10.24 v 40.38 h -12.12 v -7.01 c -0.04,-2.19 -0.09,-4.37 -0.11,-6.54 -0.04,-4.17 -0.06,-8.2 -0.06,-11.8 v -15.03 c 0,-7.56 2.3,-12.92 6.06,-16.21 3.76,-3.15 8.36,-4.72 13.42,-4.72 11.8,-0.01 19.16,5.82 19.16,20.93 z"
   clip-path="url(#SVGID_2_)"
   id="path28" />
	<path
   class="st5"
   d="m 238.51,315.63 -15.56,-0.18 v -11.69 l 15.24,0.01 c 7.66,0 10.57,-2.55 10.57,-6.96 0,-4.44 -2.43,-6.66 -10.09,-6.66 l -42.11,0.01 0.06,-11.88 41.57,0.02 c 15.63,0 21.66,7.11 21.66,18.51 0,4.91 -1.63,9.33 -5.06,12.96 -3.26,3.64 -8.8,5.85 -16.6,5.85"
   clip-path="url(#SVGID_2_)"
   id="path30" />
	<path
   class="st3"
   d="m 238.51,315.63 -15.56,-0.18 v -11.69 l 15.24,0.01 c 7.66,0 10.57,-2.55 10.57,-6.96 0,-4.44 -2.43,-6.66 -10.09,-6.66 l -42.11,0.01 0.06,-11.88 41.57,0.02 c 15.63,0 21.66,7.11 21.66,18.51 0,4.91 -1.63,9.33 -5.06,12.96 -3.26,3.64 -8.8,5.85 -16.6,5.85"
   clip-path="url(#SVGID_2_)"
   id="path32" />
	<path
   class="st6"
   d="m 210.48,303.77 v 11.69 l -6.91,0.01 c -2.26,0.04 -4.53,0.08 -6.75,0.1 -4.25,0.04 -8.38,0.06 -12.06,0.06 h -15.71 c -7.83,0 -13.35,-2.22 -16.77,-5.86 -3.26,-3.64 -4.89,-8.05 -4.89,-12.96 0,-11.4 6.03,-18.51 21.66,-18.51 l 15.23,0.04 c 0,3.62 0.02,7.66 0.06,11.85 l -15.78,-0.03 c -7.66,0 -10.11,2.22 -10.11,6.66 0,4.42 2.94,6.96 10.6,6.96 z"
   clip-path="url(#SVGID_2_)"
   id="path34" />
	<path
   class="st3"
   d="m 210.48,303.77 v 11.69 l -6.91,0.01 c -2.26,0.04 -4.53,0.08 -6.75,0.1 -4.25,0.04 -8.38,0.06 -12.06,0.06 h -15.71 c -7.83,0 -13.35,-2.22 -16.77,-5.86 -3.26,-3.64 -4.89,-8.05 -4.89,-12.96 0,-11.4 6.03,-18.51 21.66,-18.51 l 15.23,0.04 c 0,3.62 0.02,7.66 0.06,11.85 l -15.78,-0.03 c -7.66,0 -10.11,2.22 -10.11,6.66 0,4.42 2.94,6.96 10.6,6.96 z"
   clip-path="url(#SVGID_2_)"
   id="path36" />
	<path
   style="fill:#ffffff"
   class="st7"
   d="m 686.14,308.3 c 0,-17.78 -7.3,-26.72 -21.07,-26.72 -13.77,0 -21.71,8.94 -21.71,22.8 0,16.23 7.48,24.44 22.43,24.44 9.58,0 16.96,-5.2 19.7,-14.41 h -12.22 c -0.82,3.1 -4.19,5.02 -8.03,5.02 -5.84,0 -9.67,-4.38 -10.03,-11.13 z m -30.56,-7.48 c 0.46,-6.2 4.38,-9.85 9.12,-9.85 4.65,0 9.03,3.19 9.21,9.85 z M 608.8,338.11 V 321.8 c 3.37,4.74 7.75,7.02 13.31,7.02 11.58,0 18.42,-9.57 18.42,-23.16 0,-15.14 -8.12,-24.08 -19.43,-24.08 -5.47,0 -9.67,2.1 -12.49,6.66 l -0.09,-5.47 h -11.4 v 55.35 h 11.68 z m 9.49,-19.41 c -6.57,0 -9.94,-4.83 -9.94,-14.59 0,-7.57 4.38,-12.86 10.03,-12.86 5.93,0 10.12,5.56 10.12,13.59 0,9.21 -3.28,13.86 -10.21,13.86 m -47.79,10.12 c 13.95,0 22.8,-9.39 22.8,-23.62 0,-14.32 -8.76,-23.62 -22.8,-23.62 -14.23,0 -23.07,9.39 -23.07,23.62 -0.01,13.95 8.57,23.62 23.07,23.62 m 0,-9.94 c -7.2,0 -10.85,-4.56 -10.85,-13.68 0,-9.12 3.65,-13.59 10.85,-13.59 7.2,0 10.85,4.47 10.85,13.59 0,9.12 -3.65,13.68 -10.85,13.68 m -37.03,-7.48 c -0.46,4.83 -4.1,7.48 -8.76,7.48 -4.66,0 -8.76,-4.74 -8.76,-14.5 0,-9.76 4.1,-12.95 9.12,-12.95 4.47,0 7.84,2.74 8.48,7.39 h 11.95 c -0.73,-10.58 -8.66,-17.24 -20.34,-17.24 -12.59,0 -20.98,7.02 -20.98,23.07 0,16.05 8.39,24.17 20.61,24.17 10.85,0 19.33,-7.02 20.61,-17.42 z m -32.65,-15.05 c -0.55,-9.21 -6.2,-14.77 -19.06,-14.77 -14.04,0 -19.24,5.93 -19.24,12.68 0,7.57 3.19,12.04 20.61,15.87 4.83,1.09 7.2,2.19 7.2,5.47 0,2.92 -3.74,4.29 -8.21,4.29 -5.29,0 -9.03,-2.46 -9.03,-6.66 h -12.22 c 0.18,9.48 8.48,15.59 21.34,15.59 13.04,0 19.88,-5.93 19.88,-13.95 0,-10.49 -5.11,-11.31 -20.79,-15.6 -4.74,-1.28 -7.3,-2.55 -7.3,-5.02 0,-2.83 2.55,-3.83 7.39,-3.83 5.11,0 7.48,1.82 8.03,5.93 z m -65.02,32.47 c 13.95,0 22.8,-9.39 22.8,-23.62 0,-14.32 -8.75,-23.62 -22.8,-23.62 -14.23,0 -23.07,9.39 -23.07,23.62 0,13.95 8.57,23.62 23.07,23.62 m 0,-9.94 c -7.2,0 -10.85,-4.56 -10.85,-13.68 0,-9.12 3.65,-13.59 10.85,-13.59 7.2,0 10.85,4.47 10.85,13.59 0,9.12 -3.65,13.68 -10.85,13.68 m -26.81,8.76 v -61.29 h -11.67 v 22.25 c -3.38,-4.74 -7.75,-7.02 -13.32,-7.02 -11.58,0 -18.42,9.58 -18.42,23.16 0,15.14 8.12,24.08 19.42,24.08 5.47,0 9.67,-2.1 12.49,-6.66 l 0.09,5.47 h 11.41 z m -21.25,-8.49 c -5.93,0 -10.12,-5.56 -10.12,-13.59 0,-9.21 3.28,-13.86 10.21,-13.86 6.57,0 9.94,4.83 9.94,14.59 0,7.57 -4.38,12.86 -10.03,12.86 m -25.99,8.49 v -28.36 c 0,-11.31 -4.92,-17.69 -19.15,-17.69 -14.41,0 -19.52,6.48 -19.7,15.78 h 11.04 c 0.55,-4.01 2.74,-6.66 8.12,-6.66 4.65,0 7.57,1.73 7.57,4.65 0,3.1 -1.64,4.29 -7.57,5.11 -11.95,1.64 -20.61,3.1 -20.61,16.05 0,7.29 4.74,12.31 14.96,12.31 6.02,0 10.76,-2.1 13.59,-5.2 0.09,1.37 0.36,2.92 0.73,4.01 z M 349.8,310.58 c -0.09,5.29 -4.65,9.76 -10.76,9.76 -3.74,0 -5.74,-1.64 -5.74,-5.02 0,-3.83 2.19,-5.74 8.94,-7.02 4.38,-0.82 6.48,-1.46 7.66,-2.64 z m -32.19,-44.23 h -11.86 v 11.03 h 11.86 z m 0,16.42 h -11.86 v 44.87 h 11.86 z m -16.78,-16.42 h -11.86 v 61.29 h 11.86 z m -16.87,0 H 272.1 v 11.03 h 11.86 z m 0,16.42 H 272.1 v 44.87 h 11.86 z"
   clip-path="url(#SVGID_2_)"
   id="path38" />
</g>
</svg>
